<?xml version="1.0" standalone="no"?>
<!DOCTYPE svg PUBLIC "-//W3C//DTD SVG 20010904//EN"
 "http://www.w3.org/TR/2001/REC-SVG-20010904/DTD/svg10.dtd">
<svg version="1.0" xmlns="http://www.w3.org/2000/svg"
 width="512.000000pt" height="512.000000pt" viewBox="0 0 512.000000 512.000000"
 preserveAspectRatio="xMidYMid meet">

<g transform="translate(0.000000,512.000000) scale(0.100000,-0.100000)"
fill="#000000" stroke="none">
<path d="M1480 4366 c-414 -145 -756 -430 -991 -824 -35 -58 -78 -120 -97
-136 -113 -99 -214 -320 -258 -561 -25 -139 -25 -431 0 -570 44 -242 145 -461
259 -562 19 -16 59 -73 90 -125 234 -398 614 -704 1053 -847 446 -146 914
-125 1350 59 152 64 187 89 70 50 -121 -40 -289 -77 -421 -91 -134 -14 -374
-6 -505 17 -565 98 -1058 439 -1340 924 -24 41 -74 108 -111 147 -224 242
-315 732 -218 1183 42 194 123 358 236 477 32 33 81 100 108 149 164 287 412
521 701 661 55 27 113 53 129 60 55 21 11 12 -55 -11z"/>
<path d="M3375 4020 c10 -11 20 -20 23 -20 3 0 -3 9 -13 20 -10 11 -20 20 -23
20 -3 0 3 -9 13 -20z"/>
<path d="M3495 3910 c38 -38 72 -70 74 -70 3 0 -26 32 -64 70 -38 39 -72 70
-74 70 -3 0 26 -31 64 -70z"/>
<path d="M3600 3795 c13 -14 26 -25 28 -25 3 0 -5 11 -18 25 -13 14 -26 25
-28 25 -3 0 5 -11 18 -25z"/>
<path d="M3630 3756 c0 -2 8 -10 18 -17 15 -13 16 -12 3 4 -13 16 -21 21 -21
13z"/>
<path d="M2381 3546 c-79 -44 -58 -172 32 -191 66 -14 192 -82 249 -134 62
-57 132 -161 171 -256 42 -102 96 -263 90 -269 -10 -9 -91 -7 -163 5 -122 19
-191 64 -235 150 -38 73 -110 91 -166 41 -25 -22 -32 -37 -32 -68 -3 -90 100
-220 216 -275 94 -43 192 -61 340 -61 128 0 128 0 142 -27 7 -14 29 -41 49
-60 19 -19 33 -38 30 -43 -10 -16 -119 -66 -203 -92 -121 -38 -257 -52 -371
-38 -115 14 -152 2 -176 -54 -33 -78 12 -136 120 -155 71 -12 315 -8 349 6 14
6 17 2 17 -25 0 -69 -22 -113 -92 -183 -61 -61 -68 -72 -68 -108 0 -51 23 -85
65 -99 47 -15 110 13 173 78 87 90 134 210 131 335 -1 37 2 71 7 76 5 4 36 19
70 33 33 14 93 46 133 71 l72 45 132 -44 c109 -37 1503 -394 1537 -394 7 0 10
39 8 112 l-3 112 -700 173 c-849 210 -958 243 -1058 317 -46 33 -72 89 -142
297 -37 107 -88 239 -115 294 -109 222 -248 348 -462 421 -80 27 -112 29 -147
10z"/>
<path d="M781 3280 c-108 -79 -208 -313 -242 -565 -14 -105 -6 -313 15 -421
30 -150 92 -296 164 -387 44 -54 101 -97 130 -97 93 0 230 203 289 428 31 119
43 369 24 504 -37 257 -138 479 -247 544 -54 32 -82 30 -133 -6z"/>
</g>
</svg>
